<?xml version="1.0" encoding="utf-8"?>
<!-- Generator: Adobe Illustrator 24.2.1, SVG Export Plug-In . SVG Version: 6.00 Build 0)  -->
<svg version="1.1" id="Capa_1" xmlns="http://www.w3.org/2000/svg" xmlns:xlink="http://www.w3.org/1999/xlink" x="0px" y="0px"
	 viewBox="0 0 477.9 477.9" style="enable-background:new 0 0 477.9 477.9;" xml:space="preserve">
<g>
	<g>
		<path d="M0,460.8c0,8.4,6.1,15.5,14.3,16.8c0.9,0.1,1.8,0.2,2.7,0.2c7.3,0,13.9-4.7,16.2-11.7c37.9-113.8,122.1-171.4,256.9-175.8
			v85c0,5.1,2.3,9.9,6.3,13.2c7.3,6,18,4.9,24-2.4L474,198.5c5.3-6.5,5.1-15.9-0.5-22.2L319.9,5.6C316.7,2.1,312,0,307.2,0
			c-9.4,0-17.1,7.6-17.1,17.1v85.8C121,112.2,0,259.8,0,460.8z"/>
	</g>
</g>
</svg>
