<svg id="Capa_1" data-name="Capa 1" xmlns="http://www.w3.org/2000/svg" viewBox="0 0 474.8 402"><path d="M396.28,257.1a7.49,7.49,0,0,0-3.43-.87,9,9,0,0,0-6.56,2.86L368,277.36a8.57,8.57,0,0,0-2.56,6.29v72.51a45.82,45.82,0,0,1-45.68,45.68H82.23A44,44,0,0,1,50,388.42a44,44,0,0,1-13.42-32.26V118.62A44,44,0,0,1,50,86.36,44,44,0,0,1,82.23,72.94H319.77a50.88,50.88,0,0,1,12.85,1.71,9.09,9.09,0,0,0,2.56.57,9,9,0,0,0,6.57-2.85l14-14a8.89,8.89,0,0,0,2.57-8.27,8.68,8.68,0,0,0-5.14-6.57,78.7,78.7,0,0,0-33.41-7.14H82.23q-34,0-58.11,24.13T0,118.63V356.17q0,34,24.12,58.1T82.23,438.4H319.77q34,0,58.1-24.13T402,356.17V265.38Q402,259.38,396.28,257.1Z" transform="translate(0 -36.4)" style="fill:#142e71"/><path d="M468,93.22,436.54,61.81a22.76,22.76,0,0,0-32.55,0L219.26,246.53l-75.08-75.09a22.76,22.76,0,0,0-32.55,0l-31.4,31.41a22.74,22.74,0,0,0,0,32.55L203,358.17a22.76,22.76,0,0,0,32.55,0L468,125.76a22.75,22.75,0,0,0,0-32.54Z" transform="translate(0 -36.4)" style="fill:#142e71"/></svg>