<?xml version="1.0" encoding="utf-8"?>
<!-- Generator: Adobe Illustrator 24.2.1, SVG Export Plug-In . SVG Version: 6.00 Build 0)  -->
<svg version="1.1" id="Capa_1" xmlns="http://www.w3.org/2000/svg" xmlns:xlink="http://www.w3.org/1999/xlink" x="0px" y="0px"
	 viewBox="0 0 494.4 494.4" style="enable-background:new 0 0 494.4 494.4;" xml:space="preserve">
<g id="XMLID_4_">
	<path id="XMLID_6_" d="M471.9,206.8L279.7,87.4c-8-5-16.6-7.2-25-7.2c-18.5,0-35.9,11-43.5,28.2l82.8,51.4
		c30.4,18.9,48.6,51.6,48.6,87.4c0,35.8-18.2,68.5-48.6,87.4L211.2,386c7.6,17.2,25,28.2,43.5,28.2c8.4,0,17-2.3,25-7.2l192.2-119.4
		C501.9,269,501.9,225.4,471.9,206.8z"/>
	<path id="XMLID_5_" d="M264.8,206.8L72.6,87.4c-8-5-16.6-7.2-25-7.2C22.8,80.2,0,99.9,0,127.8v238.8c0,27.8,22.8,47.6,47.6,47.6
		c8.4,0,17-2.3,25-7.2l192.2-119.4C294.7,269,294.7,225.4,264.8,206.8z"/>
</g>
</svg>
