<?xml version="1.0" encoding="utf-8"?>
<!-- Generator: Adobe Illustrator 24.2.1, SVG Export Plug-In . SVG Version: 6.00 Build 0)  -->
<svg version="1.1" id="Layer_1" xmlns="http://www.w3.org/2000/svg" xmlns:xlink="http://www.w3.org/1999/xlink" x="0px" y="0px"
	 viewBox="0 0 512 512" style="enable-background:new 0 0 512 512;" xml:space="preserve">
<g id="Solid">
	<path d="M48,192h358.1l-39,39c-9.4,9.4-9.4,24.6,0,33.9s24.6,9.4,33.9,0l80-80c9.4-9.4,9.4-24.6,0-33.9c0,0,0,0,0,0l-80-80
		c-9.4-9.4-24.6-9.4-33.9,0s-9.4,24.6,0,33.9l39,39H48c-13.3,0-24,10.7-24,24S34.7,192,48,192z"/>
	<path d="M464,320H105.9l39-39c9.4-9.4,9.4-24.6,0-33.9s-24.6-9.4-33.9,0l-80,80c-9.4,9.4-9.4,24.6,0,33.9c0,0,0,0,0,0l80,80
		c9.4,9.4,24.6,9.4,33.9,0c9.4-9.4,9.4-24.6,0-33.9l0,0l-39-39H464c13.3,0,24-10.7,24-24S477.3,320,464,320L464,320z"/>
</g>
</svg>
