<svg id="Capa_1" data-name="Capa 1" xmlns="http://www.w3.org/2000/svg" viewBox="0 0 399.02 399.01"><path d="M113.3,415.1l80.26-80.26-5.66-5.66,19.66-19.65a158.4,158.4,0,1,0-30.69-30.69L157.22,298.5l-5.66-5.66L71.3,373.1a29.7,29.7,0,1,0,42,42ZM221.85,264.41a115.1,115.1,0,1,1,162.77,0A115.1,115.1,0,0,1,221.85,264.41Z" transform="translate(-62.55 -24.83)"/><path d="M249,155.38a18.75,18.75,0,0,1,0-26.45,76.74,76.74,0,0,1,108.33,0,18.7,18.7,0,1,1-26.45,26.45,39.26,39.26,0,0,0-55.44,0A18.73,18.73,0,0,1,249,155.38Z" transform="translate(-62.55 -24.83)"/></svg>