<svg id="Layer_1" data-name="Layer 1" xmlns="http://www.w3.org/2000/svg" viewBox="0 0 360 360"><path d="M971,2757.29h216a12,12,0,0,1,12,12v48a12,12,0,0,1-12,12H971a12,12,0,0,1-12-12v-48a12,12,0,0,1,12-12Zm0,0" transform="translate(-953 -2655.29)" style="fill:#57a4ff"/><path d="M1199,2769.29v48a12,12,0,0,1-12,12h-24a12,12,0,0,0,12-12v-48a12,12,0,0,0-12-12h24a12,12,0,0,1,12,12Zm0,0" transform="translate(-953 -2655.29)" style="fill:#2488ff"/><rect x="186" y="174" width="36" height="24" style="fill:#acabb1"/><rect x="186" y="78" width="36" height="24" style="fill:#acabb1"/><rect x="204" y="78" width="18" height="24" style="fill:#898890"/><rect x="204" y="174" width="18" height="24" style="fill:#898890"/><path d="M971,2853.29h216a12,12,0,0,1,12,12v48a12,12,0,0,1-12,12H971a12,12,0,0,1-12-12v-48a12,12,0,0,1,12-12Zm0,0" transform="translate(-953 -2655.29)" style="fill:#57a4ff"/><path d="M1199,2865.29v48a12,12,0,0,1-12,12h-24a12,12,0,0,0,12-12v-48a12,12,0,0,0-12-12h24a12,12,0,0,1,12,12Zm0,0" transform="translate(-953 -2655.29)" style="fill:#2488ff"/><rect x="78" y="222" width="24" height="24" style="fill:#00b6bd"/><rect x="78" y="126" width="24" height="24" style="fill:#00b6bd"/><path d="M971,2661.29h216a12,12,0,0,1,12,12v48a12,12,0,0,1-12,12H971a12,12,0,0,1-12-12v-48a12,12,0,0,1,12-12Zm0,0" transform="translate(-953 -2655.29)" style="fill:#57a4ff"/><path d="M1199,2673.29v48a12,12,0,0,1-12,12h-24a12,12,0,0,0,12-12v-48a12,12,0,0,0-12-12h24a12,12,0,0,1,12,12Zm0,0" transform="translate(-953 -2655.29)" style="fill:#2488ff"/><rect x="78" y="30" width="24" height="24" style="fill:#00b6bd"/><rect x="30" y="174" width="36" height="24" style="fill:#acabb1"/><rect x="30" y="78" width="36" height="24" style="fill:#acabb1"/><rect x="48" y="78" width="18" height="24" style="fill:#898890"/><rect x="48" y="174" width="18" height="24" style="fill:#898890"/><rect x="30" y="222" width="24" height="24" style="fill:#ff7956"/><rect x="30" y="126" width="24" height="24" style="fill:#ff7956"/><rect x="30" y="30" width="24" height="24" style="fill:#ff7956"/><path d="M1307,2919.29v60c0,16.56-48.36,30-108,30s-108-13.44-108-30v-60c0,16.56,48.36,30,108,30s108-13.44,108-30Zm0,0" transform="translate(-953 -2655.29)" style="fill:#ffde55"/><path d="M1307,2859.29v60c0,16.56-48.36,30-108,30s-108-13.44-108-30v-60c0,16.56,48.36,30,108,30s108-13.44,108-30Zm0,0" transform="translate(-953 -2655.29)" style="fill:#ffde55"/><path d="M1307,2799.29v60c0,16.56-48.36,30-108,30s-108-13.44-108-30v-60c0,16.56,48.36,30,108,30s108-13.44,108-30Zm0,0" transform="translate(-953 -2655.29)" style="fill:#ffde55"/><path d="M1307,2799.29c0,16.57-48.35,30-108,30s-108-13.43-108-30,48.35-30,108-30,108,13.43,108,30Zm0,0" transform="translate(-953 -2655.29)" style="fill:#ffcd00"/><path d="M1307,2919.29v60c0,16.56-48.36,30-108,30-4.08,0-8-.06-12-.24,54-1.62,96-14.34,96-29.76v-41.16c15-5.16,24-11.7,24-18.84Zm0,0" transform="translate(-953 -2655.29)" style="fill:#ffcd00"/><path d="M1307,2859.29v60c0,7.14-9,13.68-24,18.84a276.55,276.55,0,0,1-84,11.16c-4.08,0-8-.06-12-.24,54-1.62,96-14.34,96-29.76v-41.16c15-5.16,24-11.7,24-18.84Zm0,0" transform="translate(-953 -2655.29)" style="fill:#ffcd00"/><path d="M1307,2799.29v60c0,7.14-9,13.68-24,18.84a276.55,276.55,0,0,1-84,11.16c-4.08,0-8-.06-12-.24,54-1.62,96-14.34,96-29.76v-41.16c15-5.16,24-11.7,24-18.84Zm0,0" transform="translate(-953 -2655.29)" style="fill:#ffcd00"/><path d="M1307,2799.29c0,7.14-9,13.68-24,18.84a276.55,276.55,0,0,1-84,11.16c-4.08,0-8-.06-12-.24,54-1.62,96-14.34,96-29.76s-42-28.14-96-29.76c4-.18,7.92-.24,12-.24,59.64,0,108,13.44,108,30Zm0,0" transform="translate(-953 -2655.29)" style="fill:#ebbf00"/><path d="M1283,2919.29v18.84a276.55,276.55,0,0,1-84,11.16c-4.08,0-8-.06-12-.24,54-1.62,96-14.34,96-29.76Zm0,0" transform="translate(-953 -2655.29)" style="fill:#ffde55"/><path d="M1283,2859.29v18.84a276.55,276.55,0,0,1-84,11.16c-4.08,0-8-.06-12-.24,54-1.62,96-14.34,96-29.76Zm0,0" transform="translate(-953 -2655.29)" style="fill:#ffde55"/><path d="M1203.92,2763.35a17.93,17.93,0,0,0-16.92-12.06h-6v-12h6a18.05,18.05,0,0,0,18-18v-48a18.05,18.05,0,0,0-18-18H971a18.05,18.05,0,0,0-18,18v48a18.05,18.05,0,0,0,18,18h6v12h-6a18.05,18.05,0,0,0-18,18v48a18.05,18.05,0,0,0,18,18h6v12h-6a18.05,18.05,0,0,0-18,18v48a18.05,18.05,0,0,0,18,18h114v48c0,23.64,57.36,36,114,36s114-12.36,114-36v-180c0-23-54.06-35.22-109.08-35.94ZM971,2727.29a6,6,0,0,1-6-6v-48a6,6,0,0,1,6-6h216a6,6,0,0,1,6,6v48a6,6,0,0,1-6,6Zm198,12v12h-24v-12Zm-36,0v12H1025v-12Zm-120,0v12H989v-12Zm72,180H971a6,6,0,0,1-6-6v-48a6,6,0,0,1,6-6h114Zm-96-72v-12h24v12Zm96,0h-60v-12h60Zm0-48v24H971a6,6,0,0,1-6-6v-48a6,6,0,0,1,6-6h216a3.93,3.93,0,0,1,.84.18C1135,2765,1085,2777.21,1085,2799.29Zm216,180c0,8.16-36,24-102,24s-102-15.84-102-24v-43.08c19.74,12.54,61,19.08,102,19.08s82.26-6.54,102-19.08Zm0-60c0,8.16-36,24-102,24s-102-15.84-102-24v-43.08c19.74,12.54,61,19.08,102,19.08s82.26-6.54,102-19.08Zm0-60c0,8.16-36,24-102,24s-102-15.84-102-24v-43.08c19.74,12.54,61,19.08,102,19.08s82.26-6.54,102-19.08Zm-102-36c-66,0-102-15.84-102-24s36-24,102-24,102,15.84,102,24-36,24-102,24Zm0,0" transform="translate(-953 -2655.29)"/><rect x="240" y="198" width="12" height="12"/><rect x="240" y="264" width="12" height="12"/><rect x="240" y="318" width="12" height="12"/><path d="M1007,2775.29H983a6,6,0,0,0-6,6v24a6,6,0,0,0,6,6h24a6,6,0,0,0,6-6v-24a6,6,0,0,0-6-6Zm-6,24H989v-12h12Zm0,0" transform="translate(-953 -2655.29)"/><path d="M1055,2775.29h-24a6,6,0,0,0-6,6v24a6,6,0,0,0,6,6h24a6,6,0,0,0,6-6v-24a6,6,0,0,0-6-6Zm-6,24h-12v-12h12Zm0,0" transform="translate(-953 -2655.29)"/><path d="M1007,2679.29H983a6,6,0,0,0-6,6v24a6,6,0,0,0,6,6h24a6,6,0,0,0,6-6v-24a6,6,0,0,0-6-6Zm-6,24H989v-12h12Zm0,0" transform="translate(-953 -2655.29)"/><path d="M1055,2679.29h-24a6,6,0,0,0-6,6v24a6,6,0,0,0,6,6h24a6,6,0,0,0,6-6v-24a6,6,0,0,0-6-6Zm-6,24h-12v-12h12Zm0,0" transform="translate(-953 -2655.29)"/><rect x="120" y="24" width="84" height="12"/><rect x="216" y="24" width="12" height="12"/><rect x="120" y="48" width="84" height="12"/><rect x="216" y="48" width="12" height="12"/><path d="M1007,2871.29H983a6,6,0,0,0-6,6v24a6,6,0,0,0,6,6h24a6,6,0,0,0,6-6v-24a6,6,0,0,0-6-6Zm-6,24H989v-12h12Zm0,0" transform="translate(-953 -2655.29)"/><path d="M1055,2871.29h-24a6,6,0,0,0-6,6v24a6,6,0,0,0,6,6h24a6,6,0,0,0,6-6v-24a6,6,0,0,0-6-6Zm-6,24h-12v-12h12Zm0,0" transform="translate(-953 -2655.29)"/></svg>