<svg id="Isolation_Mode" data-name="Isolation Mode" xmlns="http://www.w3.org/2000/svg" xmlns:xlink="http://www.w3.org/1999/xlink" viewBox="0 0 80.06 21.42"><defs><clipPath id="clip-path" transform="translate(-83.39 -67.24)"><rect x="137.73" y="71.45" width="6.52" height="4.11" style="fill:none"/></clipPath></defs><path d="M91.06,68v1.65l-2.91,0,.07,9.88H86.49l-.06-9.88-2.85,0V68.06Z" transform="translate(-83.39 -67.24)" style="fill:#fff"/><path d="M86.49,79.75a.18.18,0,0,1-.18-.18l-.07-9.69-2.66,0h0a.18.18,0,0,1-.13-.06.18.18,0,0,1,0-.12V68.06a.17.17,0,0,1,.18-.18l7.49,0h0a.21.21,0,0,1,.13,0,.19.19,0,0,1,0,.13v1.65a.19.19,0,0,1,0,.13.16.16,0,0,1-.13.06l-2.73,0,.07,9.69a.17.17,0,0,1-.18.18Zm-.06-10.24a.17.17,0,0,1,.18.18l.07,9.7H88L88,69.68a.24.24,0,0,1,0-.13.19.19,0,0,1,.13,0l2.73,0V68.19l-7.13,0v1.29l2.67,0Z" transform="translate(-83.39 -67.24)" style="fill:#fff"/><path d="M93.18,68l1.73,0L95,79.51l-1.73,0Z" transform="translate(-83.39 -67.24)" style="fill:#fff"/><path d="M93.26,79.71a.19.19,0,0,1-.19-.18L93,68a.15.15,0,0,1,0-.13.16.16,0,0,1,.13-.06h1.73a.19.19,0,0,1,.19.18l.07,11.53a.19.19,0,0,1,0,.13.16.16,0,0,1-.13.06Zm.1-11.53.08,11.16h1.37l-.08-11.16Z" transform="translate(-83.39 -67.24)" style="fill:#fff"/><path d="M107.28,67.9l.09,12a11.61,11.61,0,0,0-.87-.91L105,77.58l-1.77-1.72-1.77-1.71c-.56-.55-1-1-1.46-1.46s-.69-.73-.83-.91l-.31-.41.06.51,0,7.6-1.75,0-.08-12.08a7.71,7.71,0,0,0,.58.64l1,1c.37.37.78.76,1.22,1.18l1.34,1.28,1.35,1.27c.44.42.85.8,1.21,1.16s.69.67,1,.95.45.48.56.61l.3.45-.05-.54,0-7.46Z" transform="translate(-83.39 -67.24)" style="fill:#fff"/><path d="M107.37,80.14a.21.21,0,0,1-.15-.07,9.3,9.3,0,0,0-.85-.9l-1.47-1.46L103.13,76l-1.77-1.71c-.55-.54-1-1-1.46-1.46s-.61-.64-.77-.83l.05,7.49a.19.19,0,0,1-.18.19H97.25a.19.19,0,0,1-.13-.05.19.19,0,0,1-.06-.13L97,67.43a.19.19,0,0,1,.33-.12,7.68,7.68,0,0,0,.57.62l1,.95,1.21,1.18,1.35,1.28,1.34,1.27c.45.41.86.8,1.22,1.16l1,1,.5.54,0-7.35a.17.17,0,0,1,.18-.18l1.73,0h0a.21.21,0,0,1,.19.19l.08,12a.17.17,0,0,1-.12.17Zm-8.48-9a.2.2,0,0,1,.15.07l.31.42c.13.16.4.46.81.89L101.62,74l1.77,1.71c.62.59,1.21,1.17,1.77,1.72l1.47,1.45.55.56-.08-11.38h-1.36l0,7.28,0,.52a.18.18,0,0,1-.12.19.18.18,0,0,1-.21-.07l-.3-.44a7.2,7.2,0,0,0-.55-.59c-.26-.28-.58-.59-.94-1l-1.22-1.16-1.34-1.27L99.8,70.32c-.44-.41-.85-.81-1.22-1.18l-1-1-.27-.28.08,11.4h1.38l0-7.42-.05-.49a.18.18,0,0,1,.12-.19Z" transform="translate(-83.39 -67.24)" style="fill:#fff"/><path d="M109.34,73.66a5.82,5.82,0,0,1,.45-2.27,6,6,0,0,1,3.11-3.19,5.85,5.85,0,0,1,4.57,0,6,6,0,0,1,1.89,1.27,6.22,6.22,0,0,1,1.28,1.87,5.71,5.71,0,0,1,0,4.56,6.21,6.21,0,0,1-1.26,1.88A5.86,5.86,0,0,1,117.55,79a5.55,5.55,0,0,1-2.28.48,5.71,5.71,0,0,1-2.3-.44,6.05,6.05,0,0,1-3.15-3.12A5.78,5.78,0,0,1,109.34,73.66Zm1.74,0a4.11,4.11,0,0,0,.33,1.64,4.18,4.18,0,0,0,.91,1.34,4.39,4.39,0,0,0,1.34.9,3.89,3.89,0,0,0,1.63.32,4,4,0,0,0,1.61-.34,4.19,4.19,0,0,0,1.31-.92,4,4,0,0,0,.88-1.35,4.16,4.16,0,0,0,.32-1.66,4.11,4.11,0,0,0-.34-1.64,4,4,0,0,0-.91-1.34,4.22,4.22,0,0,0-1.33-.9,3.81,3.81,0,0,0-1.62-.32,4.05,4.05,0,0,0-1.62.34,4.35,4.35,0,0,0-1.32.92,4.15,4.15,0,0,0-.88,1.35A4.26,4.26,0,0,0,111.08,73.66Z" transform="translate(-83.39 -67.24)" style="fill:#fff"/><path d="M115.22,79.68a5.82,5.82,0,0,1-2.32-.46,6,6,0,0,1-3.74-5.56h0a5.78,5.78,0,0,1,.46-2.34,6,6,0,0,1,1.29-1.95A6.2,6.2,0,0,1,112.83,68a6,6,0,0,1,2.36-.5h0a5.82,5.82,0,0,1,2.31.47,6.37,6.37,0,0,1,1.95,1.31,6.49,6.49,0,0,1,1.32,1.93,5.82,5.82,0,0,1,.5,2.34,5.69,5.69,0,0,1-.47,2.36,6.24,6.24,0,0,1-1.3,1.94,6.12,6.12,0,0,1-1.92,1.31,5.85,5.85,0,0,1-2.35.49Zm0-11.78h0a5.44,5.44,0,0,0-2.21.47,5.91,5.91,0,0,0-1.81,1.25A6,6,0,0,0,110,71.46a5.46,5.46,0,0,0-.43,2.2h0a5.47,5.47,0,0,0,.46,2.21,5.62,5.62,0,0,0,1.24,1.8A5.78,5.78,0,0,0,113,78.89a5.74,5.74,0,0,0,7.46-3.09,5.57,5.57,0,0,0,0-4.41,5.82,5.82,0,0,0-3.07-3A5.5,5.5,0,0,0,115.23,67.9Zm0,10.15a4.26,4.26,0,0,1-1.67-.34,4.48,4.48,0,0,1-1.4-.94,4.35,4.35,0,0,1-1-1.39,4.71,4.71,0,0,1-.35-1.72,4.54,4.54,0,0,1,.33-1.72,4.4,4.4,0,0,1,.92-1.42,4.5,4.5,0,0,1,1.38-1,4.41,4.41,0,0,1,1.69-.36,4.15,4.15,0,0,1,1.69.34,4.43,4.43,0,0,1,1.39.94,4.34,4.34,0,0,1,1.3,3.11,4.17,4.17,0,0,1-.33,1.73,4.32,4.32,0,0,1-4,2.73Zm0-8.48h0a3.69,3.69,0,0,0-1.55.33,4.16,4.16,0,0,0-1.27.87,4.11,4.11,0,0,0-1.14,2.89,4,4,0,0,0,1.19,2.85,4.22,4.22,0,0,0,1.29.86,3.83,3.83,0,0,0,1.55.31,3.6,3.6,0,0,0,1.53-.33,3.87,3.87,0,0,0,1.26-.88,4.08,4.08,0,0,0,.85-1.29,4.12,4.12,0,0,0,0-3.16,4.06,4.06,0,0,0-.86-1.28,4.3,4.3,0,0,0-1.28-.86A3.69,3.69,0,0,0,115.24,69.57Z" transform="translate(-83.39 -67.24)" style="fill:#fff"/><path d="M136.83,73.78a4.11,4.11,0,0,0,.33,1.64,4.18,4.18,0,0,0,.91,1.34,4.39,4.39,0,0,0,1.34.9A4.09,4.09,0,0,0,141,78a4,4,0,0,0,1.61-.34,4.36,4.36,0,0,0,1.31-.92,4.18,4.18,0,0,0,.89-1.35,4.34,4.34,0,0,0,.31-1.66,4.16,4.16,0,0,0-.34-1.65,4.11,4.11,0,0,0-.9-1.33,4.39,4.39,0,0,0-1.34-.9,4,4,0,0,0-3.23,0,4.43,4.43,0,0,0-1.33.91,4.49,4.49,0,0,0-.88,1.36A4.22,4.22,0,0,0,136.83,73.78Z" transform="translate(-83.39 -67.24)" style="fill:#0fa54a;stroke:#fff;stroke-miterlimit:10;stroke-width:0.009662315688631px"/><path d="M141,79.8a5.84,5.84,0,0,1-2.33-.46,6.05,6.05,0,0,1-1.93-1.29,6.22,6.22,0,0,1-1.32-1.91,6,6,0,0,1-.49-2.36h0a5.86,5.86,0,0,1,.46-2.35,6.18,6.18,0,0,1,3.21-3.28,6,6,0,0,1,2.36-.5h0a5.9,5.9,0,0,1,2.32.47,6.24,6.24,0,0,1,3.26,3.24,5.64,5.64,0,0,1,.5,2.33,5.7,5.7,0,0,1-.47,2.37,6.08,6.08,0,0,1-1.3,1.93,6,6,0,0,1-1.92,1.32,5.82,5.82,0,0,1-2.35.49ZM141,68h0a5.28,5.28,0,0,0-2.21.47,5.76,5.76,0,0,0-3,3.09,5.45,5.45,0,0,0-.43,2.19h0a5.48,5.48,0,0,0,.46,2.22,5.77,5.77,0,0,0,3.06,3,5.59,5.59,0,0,0,4.42,0A5.69,5.69,0,0,0,145,77.74a6,6,0,0,0,1.23-1.82,5.53,5.53,0,0,0,.43-2.22,5.41,5.41,0,0,0-.46-2.19A6,6,0,0,0,145,69.69a5.73,5.73,0,0,0-1.83-1.23A5.5,5.5,0,0,0,141,68Zm0,10.14a4.29,4.29,0,0,1-1.67-.33,4.66,4.66,0,0,1-1.4-.94,4.11,4.11,0,0,1-.94-1.4,4.47,4.47,0,0,1-.36-1.71,4.59,4.59,0,0,1,.33-1.73,4.36,4.36,0,0,1,.92-1.41,4.5,4.5,0,0,1,1.38-1,4.41,4.41,0,0,1,1.69-.36,4.15,4.15,0,0,1,1.69.34A4.4,4.4,0,0,1,145,72a4.3,4.3,0,0,1,.35,1.72,4.2,4.2,0,0,1-.33,1.73,4.5,4.5,0,0,1-.91,1.41,4.37,4.37,0,0,1-1.37,1,4.07,4.07,0,0,1-1.69.36Zm0-8.47h0a3.69,3.69,0,0,0-1.55.33,4.16,4.16,0,0,0-1.27.87,4.4,4.4,0,0,0-.84,1.3,4.24,4.24,0,0,0-.3,1.59,4,4,0,0,0,.32,1.57,3.93,3.93,0,0,0,.87,1.28,4.22,4.22,0,0,0,1.29.86,3.83,3.83,0,0,0,1.55.31,3.92,3.92,0,0,0,1.53-.33,4,4,0,0,0,1.26-.88,4.08,4.08,0,0,0,.85-1.29,4.2,4.2,0,0,0,.3-1.59A4,4,0,0,0,142.51,70,3.69,3.69,0,0,0,141,69.69Z" transform="translate(-83.39 -67.24)" style="fill:#0fa54a"/><path d="M94.58,87.94l.57-.34a.89.89,0,0,0,1,.82,1,1,0,0,0,.68-.23.73.73,0,0,0,.26-.57,1.27,1.27,0,0,0-.58-1l-.4-.33a3.25,3.25,0,0,1-.65-.63.87.87,0,0,1-.17-.52,1.13,1.13,0,0,1,.44-.9,1.67,1.67,0,0,1,1.1-.36,2.18,2.18,0,0,1,1,.25l-.19.45-.09.19c0,.12-.1.18-.17.18a.12.12,0,0,1-.09,0,.83.83,0,0,0,.06-.27.4.4,0,0,0-.24-.36,1.06,1.06,0,0,0-.58-.15c-.52,0-.79.22-.79.65a.68.68,0,0,0,.18.45,5.34,5.34,0,0,0,.73.67l.32.26a1.4,1.4,0,0,1,.61,1,1.23,1.23,0,0,1-.51,1,2,2,0,0,1-1.27.4A1.14,1.14,0,0,1,94.58,87.94Z" transform="translate(-83.39 -67.24)" style="fill:#fff"/><path d="M99.27,85.82l-.16,1.47a5.36,5.36,0,0,0,0,.59c0,.25.08.37.25.37s.38-.15.57-.45a.15.15,0,0,1,0,.11c0,.13-.11.27-.32.45a1,1,0,0,1-.57.26c-.31,0-.47-.2-.47-.61a6.74,6.74,0,0,1,.06-.72l.16-1.47h-.7l.38-.39h.36l.07-.6.49-.17-.08.77h1.41l-.39.39Z" transform="translate(-83.39 -67.24)" style="fill:#fff"/><path d="M102.71,87.21a4.27,4.27,0,0,1-.83,1,1.26,1.26,0,0,1-.78.4c-.3,0-.45-.25-.45-.74a2.54,2.54,0,0,1,.66-1.75,2.06,2.06,0,0,1,1.57-.74,1.7,1.7,0,0,1,.59.09l0,.07,0,.18c0,.12,0,.19,0,.21l-.21,1.47,0,.21a4.22,4.22,0,0,0,0,.42c0,.1,0,.14.09.14s.37-.2.56-.62c.06,0,.09.07.09.11a1.12,1.12,0,0,1-.28.47,1,1,0,0,1-.72.48c-.17,0-.25-.11-.25-.33a1.57,1.57,0,0,1,0-.27l0-.27,0-.29Zm.19-1.32a1.28,1.28,0,0,0-.61-.17.93.93,0,0,0-.79.57,2.88,2.88,0,0,0-.31,1.41c0,.29.08.43.26.43a1.14,1.14,0,0,0,.71-.45,2.6,2.6,0,0,0,.69-1.43Z" transform="translate(-83.39 -67.24)" style="fill:#fff"/><path d="M105.23,86.75c.49-.94,1-1.4,1.45-1.4a1,1,0,0,1,.38.08l-.47.52a.58.58,0,0,0-.28-.06c-.23,0-.47.18-.73.56a2.65,2.65,0,0,0-.45,1.16l-.09.81-.49.17v-.1l0-.22,0-.21.17-1.59,0-.17a2.23,2.23,0,0,0,0-.32c0-.13,0-.2-.12-.2s-.35.19-.53.57a.19.19,0,0,1-.08-.13,1,1,0,0,1,.38-.54,1,1,0,0,1,.57-.33c.19,0,.28.12.28.37a1.15,1.15,0,0,1,0,.24l0,.23,0,.28Z" transform="translate(-83.39 -67.24)" style="fill:#fff"/><path d="M108,85.82l-.16,1.47a5.36,5.36,0,0,0,0,.59c0,.25.08.37.25.37s.38-.15.57-.45a.15.15,0,0,1,0,.11c0,.13-.11.27-.32.45a1,1,0,0,1-.57.26c-.31,0-.47-.2-.47-.61a6.74,6.74,0,0,1,.06-.72l.15-1.47h-.69l.38-.39h.36l.07-.6.49-.17-.08.77h1.41l-.39.39Z" transform="translate(-83.39 -67.24)" style="fill:#fff"/><path d="M111.58,88.53l.47-.41.4,0a.92.92,0,0,0,.37-.39,2.37,2.37,0,0,0,.17-.71V87a2.13,2.13,0,0,0,0-.27,3.83,3.83,0,0,0-.35-1.59c-.22-.52-.46-.77-.7-.77s-.34.14-.46.42a.13.13,0,0,1-.1-.13.69.69,0,0,1,.27-.46.76.76,0,0,1,.49-.26c.3,0,.58.23.84.68a4.67,4.67,0,0,1,.52,1.69,4.56,4.56,0,0,1,.83-1.68,1.51,1.51,0,0,1,1.1-.69.72.72,0,0,1,.4.14l-.37.51a.59.59,0,0,0-.31-.09q-.49,0-1,.81a4.29,4.29,0,0,0-.63,1.76v.07a1.22,1.22,0,0,1-.19.61,1.72,1.72,0,0,1-.57.44l1,0-.38.38Z" transform="translate(-83.39 -67.24)" style="fill:#fff"/><path d="M116.42,88.62q-.75,0-.75-1a2.44,2.44,0,0,1,.59-1.54,1.58,1.58,0,0,1,1.21-.74c.51,0,.76.33.76,1a2.41,2.41,0,0,1-.59,1.54A1.61,1.61,0,0,1,116.42,88.62Zm.4-.38a.74.74,0,0,0,.64-.42,2,2,0,0,0,.26-1.06c0-.69-.21-1-.64-1a.73.73,0,0,0-.64.43,2,2,0,0,0-.26,1.06C116.18,87.9,116.39,88.24,116.82,88.24Z" transform="translate(-83.39 -67.24)" style="fill:#fff"/><path d="M121,87.22a4.34,4.34,0,0,1-.85,1,1.4,1.4,0,0,1-.78.41c-.22,0-.33-.15-.33-.44,0-.11,0-.29,0-.54l.12-1.09s0-.08,0-.19l0-.22a1,1,0,0,0,0-.17c0-.13,0-.19-.11-.19s-.35.19-.54.56c0,0-.07-.06-.07-.1s.13-.32.37-.55a1,1,0,0,1,.59-.34c.18,0,.27.12.27.38a1.62,1.62,0,0,1,0,.21l0,.25,0,.28-.1,1a4.07,4.07,0,0,0,0,.5c0,.15.06.22.17.22s.53-.2.85-.61a2.63,2.63,0,0,0,.55-1.23l.12-.79.54-.18c-.06.26-.11.49-.14.69l-.2,1.39q0,.12,0,.21l0,.18c0,.12,0,.2,0,.24s0,.14.08.14.38-.2.57-.62c.06,0,.09.07.09.11s-.09.23-.29.47a1,1,0,0,1-.72.48q-.24,0-.24-.33c0-.07,0-.16,0-.27l0-.27c0-.15,0-.24,0-.29Z" transform="translate(-83.39 -67.24)" style="fill:#fff"/><path d="M123.51,86.75c.49-.94,1-1.4,1.46-1.4a1,1,0,0,1,.37.08l-.47.52a.54.54,0,0,0-.27-.06c-.23,0-.48.18-.73.56a2.43,2.43,0,0,0-.45,1.16l-.09.81-.5.17v-.1l0-.22,0-.21.18-1.59,0-.17c0-.13,0-.24,0-.32s0-.2-.11-.2-.36.19-.53.57c-.06,0-.09-.09-.08-.13s.13-.32.37-.54a1,1,0,0,1,.57-.33c.19,0,.28.12.28.37a2.27,2.27,0,0,1,0,.24l0,.23,0,.28Z" transform="translate(-83.39 -67.24)" style="fill:#fff"/><path d="M127.46,88.45l.42-.45.11,0a2.87,2.87,0,0,0,.38.08.85.85,0,0,0,.36-.4,3.73,3.73,0,0,0,.17-.92l.28-2.5a2,2,0,0,0-1.1.37,1,1,0,0,0-.42.81,1.12,1.12,0,0,0,.15.56l-.53.47a1.86,1.86,0,0,1-.07-.52A1.75,1.75,0,0,1,128,84.5a3.15,3.15,0,0,1,2-.58c1,0,1.55.3,1.55.89s-.36.9-1.07,1.2c.69.26,1,.64,1,1.17a1.15,1.15,0,0,1-.65,1,3.44,3.44,0,0,1-1.73.38A11.49,11.49,0,0,1,127.46,88.45Zm2-2.17,0,.45,0,.28a1.62,1.62,0,0,1-.2.69,1.77,1.77,0,0,1-.6.44,8.22,8.22,0,0,0,1.3.1c.69,0,1-.27,1-.82a1.05,1.05,0,0,0-.29-.69,1.44,1.44,0,0,0-.69-.45h-.49Zm.23-2-.2,1.76.34,0,.39,0a1.18,1.18,0,0,0,.71-1C131,84.51,130.54,84.25,129.72,84.25Z" transform="translate(-83.39 -67.24)" style="fill:#fff"/><path d="M134.48,87.22a4.61,4.61,0,0,1-.85,1,1.4,1.4,0,0,1-.78.41c-.22,0-.33-.15-.33-.44a4.8,4.8,0,0,1,0-.54l.12-1.09a1,1,0,0,0,0-.19l0-.22a1,1,0,0,0,0-.17c0-.13,0-.19-.11-.19s-.35.19-.55.56a.12.12,0,0,1-.06-.1c0-.14.12-.32.37-.55a1,1,0,0,1,.58-.34c.19,0,.28.12.28.38a1.62,1.62,0,0,1,0,.21l0,.25,0,.28-.11,1c0,.16,0,.33,0,.5s.05.22.17.22.53-.2.84-.61a2.65,2.65,0,0,0,.56-1.23l.12-.79.54-.18a6,6,0,0,0-.14.69l-.2,1.39,0,.21,0,.18a1.36,1.36,0,0,0,0,.24c0,.1,0,.14.08.14s.38-.2.57-.62c.06,0,.09.07.09.11s-.09.23-.29.47a1,1,0,0,1-.72.48q-.24,0-.24-.33a1.42,1.42,0,0,1,0-.27l0-.27c0-.15,0-.24,0-.29Z" transform="translate(-83.39 -67.24)" style="fill:#fff"/><path d="M135.68,88.44l.46-.38a.84.84,0,0,0,.66.28.42.42,0,0,0,.48-.46c0-.18-.15-.41-.45-.72l-.19-.2a1.22,1.22,0,0,1-.41-.7.79.79,0,0,1,.33-.65,1.27,1.27,0,0,1,.83-.26,1.86,1.86,0,0,1,.58.1l-.4.37a.9.9,0,0,0-.56-.19c-.25,0-.37.1-.37.3s.14.35.41.63l.2.22a1.31,1.31,0,0,1,.46.78.93.93,0,0,1-.4.74,1.48,1.48,0,0,1-.93.32A1.43,1.43,0,0,1,135.68,88.44Z" transform="translate(-83.39 -67.24)" style="fill:#fff"/><path d="M139.93,87.56c.06,0,.09.07.09.11s-.1.23-.29.47a1,1,0,0,1-.72.48c-.17,0-.25-.11-.25-.32s0-.37.1-.84l.13-.91,0-.23,0-.18a1.76,1.76,0,0,0,0-.19c0-.12,0-.17-.09-.17s-.36.19-.56.57a.17.17,0,0,1-.06-.12c0-.13.12-.31.37-.54a1,1,0,0,1,.6-.34c.17,0,.25.11.25.34a2.12,2.12,0,0,1,0,.27l0,.23s0,.1,0,.27l-.14,1,0,.21a4.22,4.22,0,0,0,0,.42c0,.1,0,.14.08.14S139.73,88,139.93,87.56Zm-.67-2.64.28-.69a1.58,1.58,0,0,0,.61-.42.12.12,0,0,1,0,.09Q140.19,84.35,139.26,84.92Z" transform="translate(-83.39 -67.24)" style="fill:#fff"/><path d="M141.23,88.41l-.5.21v-.1l0-.24,0-.23L141,86.5l0-.18c0-.13,0-.24,0-.33s0-.21-.11-.21-.34.19-.53.56c-.05,0-.08-.07-.08-.11s.12-.31.37-.54a1,1,0,0,1,.57-.34c.19,0,.29.12.29.36,0,.06,0,.15,0,.25l0,.27,0,.23,0,.23a4.26,4.26,0,0,1,.86-1,1.34,1.34,0,0,1,.8-.38c.21,0,.32.15.32.44a2.51,2.51,0,0,1,0,.41l-.18,1.24a5.56,5.56,0,0,0-.05.59c0,.12,0,.17.09.17s.34-.2.57-.6c.05,0,.08.06.08.1s-.13.33-.37.57a1.05,1.05,0,0,1-.61.35c-.17,0-.26-.13-.26-.38a6.91,6.91,0,0,1,.07-.75l.12-.81a4.35,4.35,0,0,0,.06-.62c0-.17-.07-.26-.19-.26a1.16,1.16,0,0,0-.86.58,2.46,2.46,0,0,0-.51,1.24Z" transform="translate(-83.39 -67.24)" style="fill:#fff"/><path d="M146.2,87.47a.15.15,0,0,1,.08.14.81.81,0,0,1-.21.35,1.55,1.55,0,0,1-1.12.66.68.68,0,0,1-.56-.27,1,1,0,0,1-.22-.69,2.6,2.6,0,0,1,.57-1.54,1.54,1.54,0,0,1,1.14-.77c.27,0,.4.14.4.43a1.33,1.33,0,0,1-.47,1,2.66,2.66,0,0,1-1.16.65c0,.53.26.79.64.79S146,88,146.2,87.47ZM144.67,87l.17,0a1.12,1.12,0,0,0,.73-.25.76.76,0,0,0,.3-.59.34.34,0,0,0-.39-.39.65.65,0,0,0-.52.34A1.94,1.94,0,0,0,144.67,87Z" transform="translate(-83.39 -67.24)" style="fill:#fff"/><path d="M146.5,88.44l.46-.38a.83.83,0,0,0,.65.28.42.42,0,0,0,.48-.46c0-.18-.14-.41-.44-.72l-.19-.2a1.16,1.16,0,0,1-.41-.7.79.79,0,0,1,.33-.65,1.26,1.26,0,0,1,.82-.26,1.87,1.87,0,0,1,.59.1l-.4.37a.91.91,0,0,0-.57-.19q-.36,0-.36.3c0,.14.14.35.4.63l.21.22a1.31,1.31,0,0,1,.46.78.93.93,0,0,1-.4.74,1.48,1.48,0,0,1-.93.32A1.43,1.43,0,0,1,146.5,88.44Z" transform="translate(-83.39 -67.24)" style="fill:#fff"/><path d="M148.92,88.44l.46-.38a.85.85,0,0,0,.66.28.42.42,0,0,0,.48-.46c0-.18-.15-.41-.44-.72l-.19-.2a1.19,1.19,0,0,1-.42-.7.79.79,0,0,1,.33-.65,1.29,1.29,0,0,1,.83-.26,1.86,1.86,0,0,1,.58.1l-.4.37a.9.9,0,0,0-.56-.19c-.24,0-.37.1-.37.3s.14.35.41.63l.2.22a1.31,1.31,0,0,1,.46.78.93.93,0,0,1-.4.74,1.48,1.48,0,0,1-.93.32A1.43,1.43,0,0,1,148.92,88.44Z" transform="translate(-83.39 -67.24)" style="fill:#fff"/><g style="clip-path:url(#clip-path)"><path d="M143.66,73.52a1.32,1.32,0,0,0,0-.34,1.73,1.73,0,0,0-3.32-.7,1.31,1.31,0,0,0-2,1,1.09,1.09,0,0,0,.45,2.07h1.57c.08,0,.08-.09.08-.09v-.69a.11.11,0,0,0-.11-.11h-.3c-.06,0-.07,0,0-.09l.9-1.22a.09.09,0,0,1,.13,0l.91,1.22s0,.09,0,.09h-.29a.11.11,0,0,0-.11.11v.7a.08.08,0,0,0,.08.08h1.57a1.09,1.09,0,0,0,.51-2Zm0,0" transform="translate(-83.39 -67.24)" style="fill:#fff"/></g><path d="M131.76,79.22V74.07h-5.68v5.15H125v-11h1.11v4.84h5.68V68.23h1.09v11Z" transform="translate(-83.39 -67.24)" style="fill:#fff;stroke:#fff;stroke-miterlimit:10;stroke-width:0.794372283909283px"/><path d="M151.92,79.46a3.34,3.34,0,0,1-2.37-.88,3.14,3.14,0,0,1-1-2.32h1.08a2,2,0,0,0,2.24,2.22,2.12,2.12,0,0,0,1.52-.61,2.05,2.05,0,0,0,.64-1.53,1.86,1.86,0,0,0-.76-1.56,3.64,3.64,0,0,0-.77-.43c-.23-.1-.52-.19-.87-.3a10.88,10.88,0,0,1-1.08-.37,4.17,4.17,0,0,1-.88-.51,2.41,2.41,0,0,1-.83-2,2.72,2.72,0,0,1,.89-2.07,3,3,0,0,1,2.14-.81,2.87,2.87,0,0,1,2.1.83,2.79,2.79,0,0,1,.87,2.09h-1.07a1.9,1.9,0,0,0-.56-1.37,1.78,1.78,0,0,0-1.34-.58,1.93,1.93,0,0,0-1.38.53,1.76,1.76,0,0,0-.57,1.34,1.56,1.56,0,0,0,.87,1.43,4.55,4.55,0,0,0,.83.34l.86.25a4.25,4.25,0,0,1,1.89,1.1,2.88,2.88,0,0,1,.74,2,3,3,0,0,1-1,2.25A3.2,3.2,0,0,1,151.92,79.46Z" transform="translate(-83.39 -67.24)" style="fill:#fff;stroke:#fff;stroke-miterlimit:10;stroke-width:0.794372283909283px"/><path d="M160.6,79.26h-1.08V69.49h-2.47v-1h6v1H160.6Z" transform="translate(-83.39 -67.24)" style="fill:#fff;stroke:#fff;stroke-miterlimit:10;stroke-width:0.794372283909283px"/></svg>